<svg width="20" height="20" viewBox="0 0 20 20" fill="none" xmlns="http://www.w3.org/2000/svg">
<path d="M14.9531 3.67969L14.5371 3.6084H14.5322C14.5296 3.60796 14.526 3.6072 14.5215 3.60645C14.512 3.60487 14.4981 3.60243 14.4805 3.59961C14.4452 3.59397 14.3943 3.58563 14.3301 3.57617C14.2015 3.55725 14.0191 3.53193 13.8018 3.50684C13.3691 3.45688 12.7883 3.40626 12.2148 3.40625C10.9718 3.40625 9.88898 3.78515 9.11621 4.55859C8.34293 5.33259 7.9375 6.44397 7.9375 7.79688V9.5H5.39844V13.3906H7.9375V19.2725C3.68288 18.3305 0.5 14.5379 0.5 10C0.5 4.75329 4.75329 0.5 10 0.5C15.2467 0.5 19.5 4.75329 19.5 10C19.5 14.5379 16.3171 18.3305 12.0625 19.2725V13.3906H14.3213L14.3867 12.9668L14.8301 10.0762L14.9189 9.5H12.0625V8.125C12.0625 7.80181 12.1427 7.54444 12.29 7.37402C12.4256 7.2172 12.68 7.0625 13.1924 7.0625H14.9531V3.67969Z" fill="white" stroke="black"/>
</svg>
